# AST/ASF file generated using VICON BodyLanguage
# -----------------------------------------------
:version 1.10
:name VICON
:units
  mass 1.0
  length 0.45
  angle deg
:documentation
   .ast/.asf automatically generated from VICON data using
   VICON BodyBuilder and BodyLanguage model FoxedUp or BRILLIANT.MOD
:root
   order TX TY TZ RX RY RZ
   axis XYZ
   position 0 0 0  
   orientation 0 0 0 
:bonedata
  begin
     id 1 
     name lhipjoint
     direction 0.78388 -0.462562 0.414208 
     length 3.01181 
     axis 0 0 0  XYZ
  end
  begin
     id 2 
     name lfemur
     direction 0.34202 -0.939693 0  
     length 6.04673  
     axis 0 0 20  XYZ
    dof rx ry rz
    limits (-160.0 20.0)
           (-70.0 70.0)
           (-60.0 70.0)
  end
  begin
     id 3 
     name ltibia
     direction 0.34202 -0.939693 0   
     length 7.211   
     axis 0 0 20   XYZ
    dof rx
    limits (-10.0 170.0)
  end
  begin
     id 4 
     name lfoot
     direction 0.121887 -0.334882 0.934344   
     length 2.13567   
     axis -90 7.62852e-016 20   XYZ
    dof rx rz
    limits (-45.0 90.0)
           (-70.0 20.0)
  end
  begin
     id 5 
     name ltoes
     direction 1.53555e-011 -4.2179e-011 1   
     length 1.05957   
     axis -90 7.62852e-016 20   XYZ
    dof rx
    limits (-90.0 20.0)
  end
  begin
     id 6 
     name rhipjoint
     direction -0.769387 -0.475875 0.426129   
     length 2.92756  
     axis 0 0 0  XYZ 
  end
  begin
     id 7 
     name rfemur
     direction -0.34202 -0.939693 0   
     length 6.35468   
     axis 0 0 -20   XYZ
    dof rx ry rz
    limits (-160.0 20.0)
           (-70.0 70.0)
           (-70.0 60.0)
  end
  begin
     id 8 
     name rtibia
     direction -0.34202 -0.939693 0   
     length 7.37886   
     axis 0 0 -20   XYZ
    dof rx
    limits (-10.0 170.0)
 end
 begin
     id 9 
     name rfoot
     direction -0.101763 -0.279592 0.954711   
     length 2.21478  
     axis -90 -7.62852e-016 -20   XYZ
    dof rx rz
    limits (-45.0 90.0)
           (-20.0 70.0)
  end
  begin
     id 10 
     name rtoes
     direction -1.53494e-011 -4.21851e-011 1   
     length 1.10506   
     axis -90 -7.62852e-016 -20   XYZ
    dof rx
    limits (-90.0 20.0)
  end
  begin
     id 11 
     name lowerback
     direction 0.00747405 0.999267 0.0375481   
     length 2.13259   
     axis 0 0 0   XYZ
    dof rx ry rz
    limits (-20.0 45.0)
           (-30.0 30.0)
           (-30.0 30.0)
  end
  begin
     id 12 
     name upperback
     direction 0.00661626 0.996177 0.0871029   
     length 2.10528   
     axis 0 0 0   XYZ
    dof rx ry rz
    limits (-20.0 45.0)
           (-30.0 30.0)
           (-30.0 30.0)
  end
  begin
     id 13 
     name thorax
     direction 0.00320659 0.997679 0.0680167   
     length 2.11338   
     axis 0 0 0   XYZ
    dof rx ry rz
    limits (-20.0 45.0)
           (-30.0 30.0)
           (-30.0 30.0)
  end
  begin
     id 14 
     name lowerneck
     direction 0.0374841 0.973033 0.227602   
     length 1.42765   
     axis 0 0 0   XYZ
    dof rx ry rz
    limits (-20.0 45.0)
           (-30.0 30.0)
           (-30.0 30.0)
  end
  begin
     id 15 
     name upperneck
     direction 0.00481585 0.989155 -0.146795   
     length 1.47593   
     axis 0 0 0   XYZ
    dof rx ry rz
    limits (-20.0 45.0)
           (-30.0 30.0)
           (-30.0 30.0)
  end
  begin
     id 16
     name head
     direction -0.00292522 0.997206 -0.0746423  
     length 1.48116  
     axis 0 0 0   XYZ
    dof rx ry rz
    limits (-20.0 45.0)
           (-30.0 30.0)
           (-30.0 30.0)
  end
  begin
     id 17 
     name lclavicle
     direction 0.951444 0.305606 0.0368784  
     length 3.01855  
     axis 0 0 0   XYZ
    dof ry rz
    limits (-20.0 10.0)
           (0.0 20.0)
  end
  begin
     id 18 
     name lhumerus
     direction 1 -4.48977e-011 2.61664e-027   
     length 5.52731   
     axis 180 -30 -90   XYZ
    dof rx ry rz
    limits (-60.0 90.0)
           (-90.0 90.0)
           (-90.0 90.0)
  end
  begin
     id 19
     name lradius
     direction 1 -4.48944e-011 8.22157e-027   
     length 3.11059   
     axis 180 -30 -90   XYZ
    dof rx
    limits (-10.0 170.0)
  end
  begin
     id 20
     name lwrist
     direction 1 -4.48976e-011 1.5779e-026   
     length 1.5553   
     axis -1.15221e-014 90 90   XYZ
    dof ry
    limits (-180.0 0.0)
 end
  begin
     id 21 
     name lhand
     direction 1 -4.49025e-011 3.1558e-026   
     length 0.419626   
     axis -2.01367e-014 90 90   XYZ
    dof rx rz
    limits (-90.0 90.0)
           (-45.0 45.0)
  end
  begin
     id 22 
     name lfingers
     direction 1 -4.4904e-011 6.31161e-026   
     length 0.338313   
     axis -4.02734e-014 90 90   XYZ
    dof rx
    limits (0.0 90.0)
  end
  begin
     id 23
     name lthumb
     direction 0.707107 -6.35004e-011 0.707107   
     length 0.485752   
     axis -90 45 2.85299e-015   XYZ
    dof rx rz
    limits (-45.0 45.0)
           (-45.0 45.0)
  end
  begin
     id 24 
     name rclavicle
     direction -0.968876 0.223791 0.105816   
     length 3.04177  
     axis 0 0 0   XYZ 
    dof ry rz
    limits (-10.0 20.0)
           (-20.0 0.0)
  end
  begin
     id 25 
     name rhumerus
     direction -1 -4.48962e-011 -1.01384e-027  
     length 5.25396   
     axis 180 30 90   XYZ
    dof rx ry rz
    limits (-90.0 60.0)
           (-90.0 90.0)
           (-90.0 90.0)
  end
  begin
     id 26 
     name rradius
     direction -1 -4.48955e-011 8.88542e-027   
     length 3.10567   
     axis 180 30 90   XYZ
    dof rx
    limits (-10.0 170.0)
  end
  begin
     id 27 
     name rwrist
     direction -1 -4.48994e-011 1.5779e-026   
     length 1.55283   
     axis -1.15221e-014 -90 -90   XYZ
    dof ry
    limits (-180.0 0.0)
  end
  begin
     id 28
     name rhand
     direction -1 -4.48891e-011 3.1558e-026   
     length 0.498676   
     axis -2.01367e-014 -90 -90   XYZ
    dof rx rz
    limits (-90.0 90.0)
           (-45.0 45.0)
  end
  begin
     id 29
     name rfingers
     direction -1 -4.48972e-011 6.31161e-026   
     length 0.402045   
     axis -4.02734e-014 -90 -90   XYZ
    dof rx
    limits (0.0 90.0)
  end
  begin
     id 30
     name rthumb
     direction -0.707107 -6.34849e-011 0.707107   
     length 0.577259   
     axis -90 -45 -2.85299e-015   XYZ
    dof rx rz
    limits (-45.0 45.0)
           (-45.0 45.0)
  end
:hierarchy
  begin
    root lhipjoint rhipjoint lowerback
    lhipjoint lfemur
    lfemur ltibia
    ltibia lfoot
    lfoot ltoes
    rhipjoint rfemur
    rfemur rtibia
    rtibia rfoot
    rfoot rtoes
    lowerback upperback
    upperback thorax
    thorax lowerneck lclavicle rclavicle
    lowerneck upperneck
    upperneck head
    lclavicle lhumerus
    lhumerus lradius
    lradius lwrist
    lwrist lhand lthumb
    lhand lfingers
    rclavicle rhumerus
    rhumerus rradius
    rradius rwrist
    rwrist rhand rthumb
    rhand rfingers
  end

#!OML:ASF H:\Pregnant\Project 1\Capture day 1\Session 1\femalepreg.ASF
:FULLY-SPECIFIED
:DEGREES
120
root 9.61679 15.8304 3.34158 30.8753 -3.65457 -1.77886
lowerback -13.0225 -1.16851 -11.9343
upperback -2.85168 0.334567 -5.46454
thorax 4.24376 0.0631915 0.963685
lowerneck -11.9665 1.58143 4.03522
upperneck 30.3288 -1.02776 7.44198
head 12.0172 0.895148 1.9527
rclavicle 1.35174e-014 -1.90833e-014
rhumerus -37.6345 -3.73686 -80.5775
rradius 40.0937
rwrist -0.722147
rhand -3.4293 -13.3925
rfingers 7.12502
rthumb 22.3019 -42.1255
lclavicle 1.35174e-014 -1.90833e-014
lhumerus -28.9409 -12.4497 73.5237
lradius 39.3282
lwrist 47.555
lhand -26.7774 -5.27319
lfingers 7.12502
lthumb -0.20505 24.7065
rfemur -49.5894 9.72176 24.9345
rtibia 74.0808
rfoot -4.43674 -3.54366
rtoes -12.8868
lfemur -54.0272 -8.06349 -18.3845
ltibia 31.4664
lfoot -5.65858 -3.03251
ltoes -11.5706
121
root 9.62018 15.8483 3.40264 30.8683 -3.71478 -1.72437
lowerback -12.8293 -1.16633 -11.9746
upperback -2.79954 0.331051 -5.78013
thorax 4.19596 0.0629162 0.650189
lowerneck -11.8654 1.61962 4.04982
upperneck 30.2385 -1.04561 7.71982
head 11.9653 0.91704 2.04846
rclavicle -3.02153e-014 6.67916e-014
rhumerus -37.6719 -3.61289 -80.7783
rradius 40.5786
rwrist -0.476132
rhand -3.17557 -13.3906
rfingers 7.12502
rthumb 22.5455 -42.0943
lclavicle -3.02153e-014 6.67916e-014
lhumerus -28.3979 -12.3242 72.9442
lradius 39.7742
lwrist 48.0827
lhand -26.9571 -5.35064
lfingers 7.12502
lthumb -0.378654 24.6288
rfemur -51.5593 9.39491 25.0117
rtibia 76.7822
rfoot -4.52455 -4.10643
rtoes -12.7945
lfemur -53.4936 -7.9714 -18.6059
ltibia 31.0252
lfoot -5.70392 -3.10995
ltoes -11.357
122
root 9.6239 15.8654 3.46306 30.8906 -3.78964 -1.7083
lowerback -12.6944 -1.15828 -11.9707
upperback -2.73953 0.338891 -6.07435
thorax 4.1879 0.0666267 0.336574
lowerneck -11.7652 1.65285 4.08438
upperneck 30.1282 -1.05545 7.93819
head 11.9047 0.936588 2.11841
rclavicle 0 3.18055e-014
rhumerus -37.6852 -3.47658 -80.9632
rradius 41.1106
rwrist -0.324507
rhand -3.09326 -13.3937
rfingers 7.12502
rthumb 22.6245 -42.0877
lclavicle 0 3.18055e-014
lhumerus -27.8098 -12.1547 72.378
lradius 40.1407
lwrist 48.4686
lhand -27.0036 -5.49892
lfingers 7.12502
lthumb -0.423597 24.4804
rfemur -53.5942 9.13695 25.1174
rtibia 79.4314
rfoot -4.55002 -4.57153
rtoes -12.6891
lfemur -53.0258 -7.87173 -18.7731
ltibia 30.6406
lfoot -5.76612 -3.15077
ltoes -11.1656
123
root 9.62796 15.8817 3.52356 30.9338 -3.88963 -1.73134
lowerback -12.6043 -1.13588 -11.924
upperback -2.68902 0.365746 -6.35487
thorax 4.19306 0.0798187 0.0167893
lowerneck -11.6413 1.67948 4.12395
upperneck 30.0092 -1.06442 8.12899
head 11.8355 0.952712 2.17628
rclavicle -1.90833e-014 6.04305e-014
rhumerus -37.7209 -3.34274 -81.1338
rradius 41.6954
rwrist -0.27429
rhand -3.18744 -13.4104
rfingers 7.12502
rthumb 22.5341 -42.1154
lclavicle -1.90833e-014 6.04305e-014
lhumerus -27.2233 -11.9814 71.8357
lradius 40.464
lwrist 48.7844
lhand -27.0326 -5.68888
lfingers 7.12502
lthumb -0.45158 24.2904
rfemur -55.6714 8.95666 25.2486
rtibia 82.016
rfoot -4.53006 -4.92493
rtoes -12.578
lfemur -52.6043 -7.76099 -18.8893
ltibia 30.309
lfoot -5.84746 -3.14966
ltoes -11.0029
124
root 9.63223 15.8973 3.58393 30.999 -4.01635 -1.78176
lowerback -12.5545 -1.09957 -11.848
upperback -2.64916 0.412239 -6.6246
thorax 4.20796 0.102877 -0.304808
lowerneck -11.5022 1.70294 4.16015
upperneck 29.8847 -1.0685 8.29942
head 11.7607 0.967464 2.22703
rclavicle -2.22639e-014 0
rhumerus -37.7806 -3.21542 -81.288
rradius 42.3295
rwrist -0.322716
rhand -3.44487 -13.4355
rfingers 7.12502
rthumb 22.287 -42.1703
lclavicle -2.22639e-014 0
lhumerus -26.6339 -11.8057 71.3176
lradius 40.7447
lwrist 49.0242
lhand -27.0387 -5.9041
lfingers 7.12502
lthumb -0.457514 24.0752
rfemur -57.7937 8.85107 25.3927
rtibia 84.5315
rfoot -4.49131 -5.16827
rtoes -12.4713
lfemur -52.2265 -7.64366 -18.9661
ltibia 30.0211
lfoot -5.94126 -3.10925
ltoes -10.8701
125
root 9.63685 15.9127 3.64459 31.0652 -4.17736 -1.85275
lowerback -12.5402 -1.05118 -11.759
upperback -2.60183 0.479329 -6.87752
thorax 4.24958 0.134916 -0.613075
lowerneck -11.3769 1.7276 4.17927
upperneck 29.7616 -1.0609 8.44833
head 11.6884 0.983123 2.27419
rclavicle 1.66979e-014 2.54444e-014
rhumerus -37.8296 -3.08848 -81.4185
rradius 42.9896
rwrist -0.455712
rhand -3.85953 -13.4624
rfingers 7.12502
rthumb 21.8888 -42.2442
lclavicle 1.66979e-014 2.54444e-014
lhumerus -26.0324 -11.5979 70.8306
lradius 40.9944
lwrist 49.1914
lhand -27.0624 -6.09095
lfingers 7.12502
lthumb -0.480397 23.8882
rfemur -59.9321 8.81979 25.5416
rtibia 86.9662
rfoot -4.44081 -5.31063
rtoes -12.3553
lfemur -51.8557 -7.51796 -19.019
ltibia 29.7587
lfoot -6.04344 -3.03025
ltoes -10.7709
126
root 9.64155 15.9279 3.70524 31.1256 -4.35606 -1.9301
lowerback -12.5432 -0.996324 -11.667
upperback -2.55052 0.557464 -7.1155
thorax 4.30495 0.17187 -0.905863
lowerneck -11.2584 1.75884 4.18914
upperneck 29.6429 -1.03486 8.5734
head 11.6183 1.00336 2.31644
rclavicle -3.33958e-014 5.08889e-014
rhumerus -37.8692 -2.96455 -81.5248
rradius 43.6577
rwrist -0.657744
rhand -4.42046 -13.484
rfingers 7.12502
rthumb 21.3502 -42.3279
lclavicle -3.33958e-014 5.08889e-014
lhumerus -25.4272 -11.3602 70.3744
lradius 41.2129
lwrist 49.2751
lhand -27.0733 -6.27953
lfingers 7.12502
lthumb -0.490837 23.6996
rfemur -62.0807 8.84418 25.6914
rtibia 89.3169
rfoot -4.39253 -5.38022
rtoes -12.2863
lfemur -51.4803 -7.39384 -19.0614
ltibia 29.5037
lfoot -6.14528 -2.92861
ltoes -10.7236
127
root 9.64638 15.9436 3.76618 31.1565 -4.5497 -2.00838
lowerback -12.5485 -0.927442 -11.5687
upperback -2.48077 0.656095 -7.35036
thorax 4.38118 0.217924 -1.19614
lowerneck -11.1514 1.79175 4.19991
upperneck 29.5225 -1.00366 8.68722
head 11.5497 1.02485 2.35495
rclavicle 1.51076e-014 -1.90833e-014
rhumerus -37.8882 -2.87517 -81.6134
rradius 44.3205
rwrist -0.907744
rhand -5.10886 -13.4891
rfingers 7.12502
rthumb 20.6888 -42.4064
lclavicle 1.51076e-014 -1.90833e-014
lhumerus -24.8008 -11.1056 69.941
lradius 41.4074
lwrist 49.2743
lhand -27.1227 -6.32857
lfingers 7.12502
lthumb -0.538616 23.6505
rfemur -64.2048 8.91321 25.8426
rtibia 91.5733
rfoot -4.34519 -5.39048
rtoes -12.2574
lfemur -51.0622 -7.28241 -19.0976
ltibia 29.2376
lfoot -6.24109 -2.7984
ltoes -10.7022
128
root 9.65107 15.9593 3.82705 31.1572 -4.74739 -2.08462
lowerback -12.5471 -0.856478 -11.4775
upperback -2.39503 0.758695 -7.56754
thorax 4.47143 0.265142 -1.46352
lowerneck -11.0466 1.82766 4.20033
upperneck 29.3956 -0.962186 8.7911
head 11.4786 1.04839 2.39243
rclavicle 3.89618e-014 3.18055e-014
rhumerus -37.8801 -2.78652 -81.6771
rradius 44.9705
rwrist -1.19588
rhand -5.89551 -13.4836
rfingers 7.12502
rthumb 19.9328 -42.4813
lclavicle 3.89618e-014 3.18055e-014
lhumerus -24.1713 -10.8021 69.5453
lradius 41.5848
lwrist 49.1957
lhand -27.223 -6.24055
lfingers 7.12502
lthumb -0.635457 23.7382
rfemur -66.3063 9.01776 25.9993
rtibia 93.735
rfoot -4.29789 -5.36458
rtoes -12.2902
lfemur -50.5957 -7.17675 -19.1354
ltibia 28.9482
lfoot -6.32892 -2.663
ltoes -10.7118
129
root 9.6555 15.9759 3.88809 31.1179 -4.94396 -2.16288
lowerback -12.5233 -0.776404 -11.3819
upperback -2.29845 0.870086 -7.77638
thorax 4.56157 0.316793 -1.7232
lowerneck -10.9193 1.86393 4.19747
upperneck 29.2573 -0.918764 8.90353
head 11.3984 1.07251 2.4329
rclavicle 7.95139e-015 -6.36111e-015
rhumerus -37.8661 -2.71767 -81.7231
rradius 45.6113
rwrist -1.51101
rhand -6.75372 -13.4726
rfingers 7.12502
rthumb 19.1077 -42.554
lclavicle 7.95139e-015 -6.36111e-015
lhumerus -23.547 -10.4753 69.179
lradius 41.7415
lwrist 49.0418
lhand -27.3181 -6.16233
lfingers 7.12502
lthumb -0.727348 23.8162
rfemur -68.3596 9.15278 26.1722
rtibia 95.792
rfoot -4.25473 -5.32336
rtoes -12.4121
lfemur -50.0652 -7.08618 -19.1649
ltibia 28.6272
lfoot -6.40358 -2.5125
ltoes -10.735
130
root 9.65935 15.993 3.94909 31.038 -5.13487 -2.24475
lowerback -12.4735 -0.692473 -11.2898
upperback -2.18478 0.984186 -7.96787
thorax 4.65638 0.369436 -1.96232
lowerneck -10.7994 1.89938 4.17958
upperneck 29.1124 -0.876825 9.02955
head 11.3174 1.0958 2.48048
rclavicle 9.54166e-015 -3.18055e-015
rhumerus -37.8369 -2.64832 -81.7493
rradius 46.2509
rwrist -1.85161
rhand -7.65618 -13.4679
rfingers 7.12502
rthumb 18.2396 -42.6327
lclavicle 9.54166e-015 -3.18055e-015
lhumerus -22.9261 -10.1078 68.8501
lradius 41.8912
lwrist 48.8378
lhand -27.4413 -6.04417
lfingers 7.12502
lthumb -0.846287 23.9339
rfemur -70.3604 9.31868 26.3664
rtibia 97.7436
rfoot -4.21841 -5.29169
rtoes -12.5713
lfemur -49.4701 -7.00328 -19.1881
ltibia 28.2748
lfoot -6.46468 -2.35991
ltoes -10.7738
131
root 9.66229 16.0112 4.01028 30.9177 -5.32698 -2.33752
lowerback -12.3871 -0.596279 -11.1938
upperback -2.0727 1.1071 -8.15062
thorax 4.72966 0.427551 -2.19262
lowerneck -10.6539 1.93086 4.1666
upperneck 28.9693 -0.84206 9.16479
head 11.2325 1.11684 2.52915
rclavicle -3.49861e-014 -4.13472e-014
rhumerus -37.8416 -2.59475 -81.7651
rradius 46.909
rwrist -2.20881
rhand -8.56294 -13.4718
rfingers 7.12502
rthumb 17.3671 -42.7159
lclavicle -3.49861e-014 -4.13472e-014
lhumerus -22.3413 -9.73333 68.5511
lradius 42.0285
lwrist 48.5844
lhand -27.5213 -6.02245
lfingers 7.12502
lthumb -0.923623 23.9553
rfemur -72.2975 9.5277 26.5851
rtibia 99.583
rfoot -4.17764 -5.28246
rtoes -12.6777
lfemur -48.8099 -6.90574 -19.2098
ltibia 27.8937
lfoot -6.51479 -2.22212
ltoes -10.8047
132
root 9.66418 16.0301 4.07135 30.7745 -5.51669 -2.43943
lowerback -12.2708 -0.483746 -11.0875
upperback -1.97538 1.2433 -8.33472
thorax 4.77129 0.494093 -2.42776
lowerneck -10.4634 1.95097 4.17999
upperneck 28.8237 -0.826805 9.30617
head 11.1391 1.13134 2.57205
rclavicle 1.27222e-014 4.13472e-014
rhumerus -37.906 -2.58029 -81.7771
rradius 47.5911
rwrist -2.57317
rhand -9.453 -13.4816
rfingers 7.12502
rthumb 16.5103 -42.7991
lclavicle 1.27222e-014 4.13472e-014
lhumerus -21.8018 -9.39074 68.2758
lradius 42.1632
lwrist 48.3128
lhand -27.5691 -6.09056
lfingers 7.12502
lthumb -0.969758 23.887
rfemur -74.19 9.77946 26.8264
rtibia 101.314
rfoot -4.12887 -5.31083
rtoes -12.728
lfemur -48.1103 -6.79193 -19.2304
ltibia 27.4898
lfoot -6.55459 -2.10124
ltoes -10.8381
133
root 9.6651 16.0495 4.13221 30.6165 -5.7039 -2.55156
lowerback -12.1446 -0.370419 -10.9866
upperback -1.87564 1.37897 -8.49606
thorax 4.8105 0.560395 -2.63589
lowerneck -10.2848 1.97029 4.19574
upperneck 28.6911 -0.810632 9.43246
head 11.0532 1.1453 2.6096
rclavicle 3.18055e-015 2.22639e-014
rhumerus -37.9771 -2.55852 -81.7695
rradius 48.2863
rwrist -2.94151
rhand -10.2985 -13.5021
rfingers 7.12502
rthumb 15.6962 -42.8855
lclavicle 3.18055e-015 2.22639e-014
lhumerus -21.296 -9.0212 68.0427
lradius 42.2983
lwrist 48.0299
lhand -27.6004 -6.22708
lfingers 7.12502
lthumb -0.999985 23.7503
rfemur -76.0431 10.0781 27.0881
rtibia 102.934
rfoot -4.06501 -5.38562
rtoes -12.7271
lfemur -47.3859 -6.6563 -19.2512
ltibia 27.0672
lfoot -6.58317 -2.00407
ltoes -10.8724
134
root 9.66537 16.0692 4.19286 30.4465 -5.88158 -2.67072
lowerback -12.0084 -0.257705 -10.8834
upperback -1.77832 1.51076 -8.63817
thorax 4.8422 0.6252 -2.82555
lowerneck -10.0947 1.98978 4.22927
upperneck 28.5605 -0.789117 9.53093
head 10.9657 1.15998 2.63418
rclavicle 1.27222e-014 -9.54166e-015
rhumerus -38.0551 -2.52419 -81.7448
rradius 48.9818
rwrist -3.31193
rhand -11.0786 -13.5232
rfingers 7.12502
rthumb 14.9448 -42.964
lclavicle 1.27222e-014 -9.54166e-015
lhumerus -20.8294 -8.64223 67.8466
lradius 42.4318
lwrist 47.7481
lhand -27.6091 -6.41519
lfingers 7.12502
lthumb -1.00838 23.5622
rfemur -77.8615 10.4147 27.3676
rtibia 104.449
rfoot -3.98812 -5.51047
rtoes -12.693
lfemur -46.6413 -6.51434 -19.2672
ltibia 26.6273
lfoot -6.59981 -1.91826
ltoes -10.9138
